<svg width="236" height="76" viewBox="0 0 236 76" fill="none" xmlns="http://www.w3.org/2000/svg">
<path d="M43.9485 62.738C47.7731 61.4285 51.3571 59.2246 54.373 56.1311C64.6308 45.6091 64.432 28.7791 53.9291 18.5397C43.4261 8.30042 26.5964 8.52953 16.3386 19.0515C13.3195 22.1483 11.2064 25.7915 9.99486 29.6522L14.5544 34.0999C15.2447 30.008 17.1452 26.0757 20.2631 22.8775C28.4041 14.5269 41.7609 14.345 50.0963 22.4712C58.4318 30.5973 58.5893 43.9545 50.4484 52.305C47.3345 55.4991 43.4575 57.4981 39.3902 58.294L43.9485 62.738Z" fill="url(#paint0_linear_397_3918)"/>
<path fill-rule="evenodd" clip-rule="evenodd" d="M22.4334 32.7091C12.7638 33.5015 5.13462 41.5556 5.07249 51.4242C5.01131 61.143 12.3109 69.1945 21.7583 70.3097C22.5344 70.3865 23.3252 70.4284 24.1271 70.4411C24.3018 70.44 24.4764 70.4364 24.6507 70.4305C34.9915 69.6616 43.4335 62.0352 43.4988 51.666C43.5621 41.6141 35.7514 33.3457 25.8342 32.6905C25.3668 32.6677 24.8948 32.6543 24.4189 32.6483C23.7483 32.6489 23.0859 32.6678 22.4334 32.7091ZM24.4175 27.7346C24.33 27.7331 24.2423 27.7321 24.1546 27.7315C10.9799 27.6486 0.232688 38.2422 0.149896 51.3932C0.0671033 64.5442 10.6801 75.2722 23.8548 75.3551C23.9489 75.3557 24.0429 75.3558 24.1367 75.3553C24.2299 75.3569 24.3232 75.3581 24.4167 75.3587C37.5914 75.4416 48.3386 64.848 48.4214 51.697C48.5042 38.546 37.8912 27.818 24.7165 27.735C24.6167 27.7344 24.517 27.7343 24.4175 27.7346Z" fill="#FF4500"/>
<path d="M85.5 63V50.7L73.7 28H81.35L89.6 45.3H88.25L96.45 28H104.05L92.25 50.7V63H85.5ZM112.638 63.6C110.538 63.6 108.805 63.2667 107.438 62.6C106.071 61.9 105.055 60.9833 104.388 59.85C103.755 58.6833 103.438 57.4 103.438 56C103.438 54.4667 103.821 53.1167 104.588 51.95C105.388 50.7833 106.571 49.8667 108.138 49.2C109.738 48.5333 111.738 48.2 114.138 48.2H120.388C120.388 46.9667 120.221 45.95 119.888 45.15C119.555 44.3167 119.038 43.7 118.338 43.3C117.638 42.9 116.705 42.7 115.538 42.7C114.271 42.7 113.188 42.9833 112.288 43.55C111.421 44.0833 110.888 44.9167 110.688 46.05H104.138C104.305 44.25 104.888 42.7 105.888 41.4C106.921 40.0667 108.271 39.0333 109.938 38.3C111.638 37.5667 113.521 37.2 115.588 37.2C117.955 37.2 120.005 37.6 121.738 38.4C123.471 39.2 124.805 40.35 125.738 41.85C126.671 43.35 127.138 45.2 127.138 47.4V63H121.438L120.688 59.15C120.321 59.8167 119.888 60.4167 119.388 60.95C118.888 61.4833 118.305 61.95 117.638 62.35C116.971 62.75 116.221 63.05 115.388 63.25C114.555 63.4833 113.638 63.6 112.638 63.6ZM114.238 58.4C115.105 58.4 115.871 58.25 116.538 57.95C117.238 57.6167 117.838 57.1833 118.338 56.65C118.838 56.0833 119.221 55.45 119.488 54.75C119.788 54.0167 119.988 53.2333 120.088 52.4V52.35H114.938C113.905 52.35 113.055 52.4833 112.388 52.75C111.755 52.9833 111.288 53.3333 110.988 53.8C110.688 54.2667 110.538 54.8 110.538 55.4C110.538 56.0667 110.688 56.6167 110.988 57.05C111.288 57.4833 111.721 57.8167 112.288 58.05C112.855 58.2833 113.505 58.4 114.238 58.4ZM133.685 74V37.8H139.685L140.435 41.3C140.968 40.5667 141.601 39.9 142.335 39.3C143.068 38.6667 143.935 38.1667 144.935 37.8C145.968 37.4 147.168 37.2 148.535 37.2C150.901 37.2 152.985 37.7833 154.785 38.95C156.585 40.1167 158.001 41.7 159.035 43.7C160.101 45.6667 160.635 47.9167 160.635 50.45C160.635 52.9833 160.101 55.25 159.035 57.25C157.968 59.2167 156.535 60.7667 154.735 61.9C152.935 63.0333 150.885 63.6 148.585 63.6C146.718 63.6 145.101 63.2667 143.735 62.6C142.401 61.9 141.301 60.95 140.435 59.75V74H133.685ZM146.985 57.7C148.318 57.7 149.485 57.4 150.485 56.8C151.518 56.2 152.318 55.35 152.885 54.25C153.451 53.15 153.735 51.8833 153.735 50.45C153.735 49.0167 153.451 47.75 152.885 46.65C152.318 45.5167 151.518 44.65 150.485 44.05C149.485 43.4167 148.318 43.1 146.985 43.1C145.685 43.1 144.518 43.4167 143.485 44.05C142.485 44.65 141.685 45.5 141.085 46.6C140.518 47.7 140.235 48.9667 140.235 50.4C140.235 51.8333 140.518 53.1167 141.085 54.25C141.685 55.35 142.485 56.2 143.485 56.8C144.518 57.4 145.685 57.7 146.985 57.7ZM175.198 63.6C173.098 63.6 171.365 63.2667 169.998 62.6C168.632 61.9 167.615 60.9833 166.948 59.85C166.315 58.6833 165.998 57.4 165.998 56C165.998 54.4667 166.382 53.1167 167.148 51.95C167.948 50.7833 169.132 49.8667 170.698 49.2C172.298 48.5333 174.298 48.2 176.698 48.2H182.948C182.948 46.9667 182.782 45.95 182.448 45.15C182.115 44.3167 181.598 43.7 180.898 43.3C180.198 42.9 179.265 42.7 178.098 42.7C176.832 42.7 175.748 42.9833 174.848 43.55C173.982 44.0833 173.448 44.9167 173.248 46.05H166.698C166.865 44.25 167.448 42.7 168.448 41.4C169.482 40.0667 170.832 39.0333 172.498 38.3C174.198 37.5667 176.082 37.2 178.148 37.2C180.515 37.2 182.565 37.6 184.298 38.4C186.032 39.2 187.365 40.35 188.298 41.85C189.232 43.35 189.698 45.2 189.698 47.4V63H183.998L183.248 59.15C182.882 59.8167 182.448 60.4167 181.948 60.95C181.448 61.4833 180.865 61.95 180.198 62.35C179.532 62.75 178.782 63.05 177.948 63.25C177.115 63.4833 176.198 63.6 175.198 63.6ZM176.798 58.4C177.665 58.4 178.432 58.25 179.098 57.95C179.798 57.6167 180.398 57.1833 180.898 56.65C181.398 56.0833 181.782 55.45 182.048 54.75C182.348 54.0167 182.548 53.2333 182.648 52.4V52.35H177.498C176.465 52.35 175.615 52.4833 174.948 52.75C174.315 52.9833 173.848 53.3333 173.548 53.8C173.248 54.2667 173.098 54.8 173.098 55.4C173.098 56.0667 173.248 56.6167 173.548 57.05C173.848 57.4833 174.282 57.8167 174.848 58.05C175.415 58.2833 176.065 58.4 176.798 58.4Z" fill="#FF4500"/>
<defs>
<linearGradient id="paint0_linear_397_3918" x1="26.9645" y1="46.1986" x2="53.9291" y2="18.5397" gradientUnits="userSpaceOnUse">
<stop stop-color="#FF4500" stop-opacity="0"/>
<stop offset="0.2" stop-color="#FF4500" stop-opacity="0"/>
<stop offset="0.4" stop-color="#FF4500" stop-opacity="0"/>
<stop offset="0.6" stop-color="#FF4500" stop-opacity="0.6"/>
<stop offset="0.8" stop-color="#FF4500" stop-opacity="0.8"/>
<stop offset="1" stop-color="#FF4500"/>
</linearGradient>
</defs>
</svg>
